<?xml version="1.0" encoding="UTF-8"?>
<svg id="a" data-name="Vrstva 1" xmlns="http://www.w3.org/2000/svg" width="585.19" height="477.76" viewBox="0 0 585.19 477.76">
  <defs>
    <style>
      .b {
        fill: #84b2af;
      }

      .c {
        fill: #2f5676;
      }

      .d {
        fill: #daad49;
      }
    </style>
  </defs>
  <g>
    <path class="b" d="m82.3,339.2c-18.24-19.2-27.34-46.63-27.34-82.32v-29.67c0-3.87,1.94-5.82,5.82-5.82h29.09c3.87,0,5.82,1.95,5.82,5.82v30.25c0,23.66,5.32,41.99,16,54.98,10.66,13,25.69,19.3,45.09,18.91,14.34,0,26.27-2.71,35.78-8.15,9.5-5.43,16.87-14.63,22.11-27.63,5.24-12.99,7.85-30.54,7.85-52.65V36.98H89.28c-3.88,0-5.82-1.94-5.82-5.82V6.72c0-3.87,1.93-5.82,5.82-5.82h168.13c3.87,0,5.82,1.94,5.82,5.82v236.19c0,41.51-9.31,72.72-27.92,93.66-18.62,20.94-44.8,31.42-78.54,31.42-31.42,0-56.24-9.6-74.46-28.8Z"/>
    <path class="b" d="m392.49,173.69h12.22V6.72c0-3.87-1.95-5.82-5.82-5.82h-29.09c-3.88,0-5.82,1.94-5.82,5.82v348.47c0,3.88,1.93,5.82,5.82,5.82h29.09c3.87,0,5.82-1.93,5.82-5.82v-124.4l-12.22,15.61v-72.72Z"/>
    <polygon class="b" points="392.49 173.69 392.49 246.41 404.71 230.8 404.71 173.69 392.49 173.69"/>
    <path class="b" d="m539.68,355.78c1.94,3.49,5.04,5.24,9.3,5.24h32c3.88,0,4.85-1.74,2.92-5.24l-117.09-204.33-26.3,33.61,99.17,170.73Z"/>
    <polygon class="b" points="511.79 31.57 407.04 173.69 404.71 173.69 404.71 230.8 440.51 185.05 437.29 179.51 462.89 144.6 466.81 151.45 560.63 31.57 511.79 31.57"/>
    <polygon class="b" points="437.29 179.51 440.51 185.05 466.81 151.45 462.89 144.6 437.29 179.51"/>
    <path class="b" d="m82.3,339.2c-18.24-19.2-27.34-46.63-27.34-82.32v-29.67c0-3.87,1.94-5.82,5.82-5.82h29.09c3.87,0,5.82,1.95,5.82,5.82v30.25c0,23.66,5.32,41.99,16,54.98,10.66,13,25.69,19.3,45.09,18.91,14.34,0,26.27-2.71,35.78-8.15,9.5-5.43,16.87-14.63,22.11-27.63,5.24-12.99,7.85-30.54,7.85-52.65V36.98H89.28c-3.88,0-5.82-1.94-5.82-5.82V6.72c0-3.87,1.93-5.82,5.82-5.82h168.13c3.87,0,5.82,1.94,5.82,5.82v236.19c0,41.51-9.31,72.72-27.92,93.66-18.62,20.94-44.8,31.42-78.54,31.42-31.42,0-56.24-9.6-74.46-28.8Z"/>
    <path class="b" d="m82.3,339.2c-18.24-19.2-27.34-46.63-27.34-82.32v-29.67c0-3.87,1.94-5.82,5.82-5.82h29.09c3.87,0,5.82,1.95,5.82,5.82v30.25c0,23.66,5.32,41.99,16,54.98,10.66,13,25.69,19.3,45.09,18.91,14.34,0,26.27-2.71,35.78-8.15,9.5-5.43,16.87-14.63,22.11-27.63,5.24-12.99,7.85-30.54,7.85-52.65V36.98H89.28c-3.88,0-5.82-1.94-5.82-5.82V6.72c0-3.87,1.93-5.82,5.82-5.82h168.13c3.87,0,5.82,1.94,5.82,5.82v236.19c0,41.51-9.31,72.72-27.92,93.66-18.62,20.94-44.8,31.42-78.54,31.42-31.42,0-56.24-9.6-74.46-28.8Z"/>
    <g>
      <path class="b" d="m569.02,0L208.81.55h-8.97s-112.85.19-112.85.19l.05,30.53c0,3.91,5.4,5.86,16.13,5.84l465.91-.72c10.76-.02,16.12-1.99,16.11-5.89l-.04-24.66c0-3.92-5.37-5.86-16.13-5.85Z"/>
      <path class="b" d="m66.13,36.77h249.67s6.22,0,6.22,0h78.22s0-30.53,0-30.53c0-3.91-3.74-5.87-11.17-5.87H66.13c-7.46,0-11.17,1.96-11.17,5.87v24.66c0,3.92,3.72,5.87,11.17,5.87Z"/>
    </g>
    <g>
      <path class="b" d="m568.95,330.88l-360.21.55h-8.97s-112.85.19-112.85.19l.05,30.53c0,3.91,5.4,5.86,16.13,5.84l465.91-.72c10.76-.02,16.12-1.99,16.11-5.89l-.04-24.66c0-3.92-5.37-5.86-16.13-5.85Z"/>
      <path class="b" d="m66.06,367.65h249.67s6.22,0,6.22,0h78.22s0-30.53,0-30.53c0-3.91-3.74-5.87-11.17-5.87H66.06c-7.46,0-11.17,1.96-11.17,5.87v24.66c0,3.92,3.72,5.87,11.17,5.87Z"/>
    </g>
  </g>
  <g>
    <path class="d" d="m54.85,394.08c-18.24-19.2-27.34-46.63-27.34-82.32v-29.67c0-3.87,1.94-5.82,5.82-5.82h29.09c3.87,0,5.82,1.95,5.82,5.82v30.25c0,23.66,5.32,41.99,16,54.98,10.66,13,25.69,19.3,45.09,18.91,14.34,0,26.27-2.71,35.78-8.15,9.5-5.43,16.87-14.63,22.11-27.63,5.24-12.99,7.85-30.54,7.85-52.65V91.86H61.84c-3.88,0-5.82-1.94-5.82-5.82v-24.43c0-3.87,1.93-5.82,5.82-5.82h168.13c3.87,0,5.82,1.94,5.82,5.82v236.19c0,41.51-9.31,72.72-27.92,93.66-18.62,20.94-44.8,31.42-78.54,31.42-31.42,0-56.24-9.6-74.46-28.8Z"/>
    <path class="d" d="m365.05,228.57h12.22V61.61c0-3.87-1.95-5.82-5.82-5.82h-29.09c-3.88,0-5.82,1.94-5.82,5.82v348.47c0,3.88,1.93,5.82,5.82,5.82h29.09c3.87,0,5.82-1.93,5.82-5.82v-124.4l-12.22,15.61v-72.72Z"/>
    <polygon class="d" points="365.05 228.57 365.05 301.29 377.27 285.68 377.27 228.57 365.05 228.57"/>
    <path class="d" d="m512.24,410.66c1.94,3.49,5.04,5.24,9.3,5.24h32c3.88,0,4.85-1.74,2.92-5.24l-117.09-204.33-26.3,33.61,99.17,170.73Z"/>
    <polygon class="d" points="484.34 86.45 379.6 228.57 377.27 228.57 377.27 285.68 413.07 239.94 409.85 234.39 435.44 199.48 439.37 206.33 533.19 86.45 484.34 86.45"/>
    <polygon class="d" points="409.85 234.39 413.07 239.94 439.37 206.33 435.44 199.48 409.85 234.39"/>
    <path class="d" d="m54.85,394.08c-18.24-19.2-27.34-46.63-27.34-82.32v-29.67c0-3.87,1.94-5.82,5.82-5.82h29.09c3.87,0,5.82,1.95,5.82,5.82v30.25c0,23.66,5.32,41.99,16,54.98,10.66,13,25.69,19.3,45.09,18.91,14.34,0,26.27-2.71,35.78-8.15,9.5-5.43,16.87-14.63,22.11-27.63,5.24-12.99,7.85-30.54,7.85-52.65V91.86H61.84c-3.88,0-5.82-1.94-5.82-5.82v-24.43c0-3.87,1.93-5.82,5.82-5.82h168.13c3.87,0,5.82,1.94,5.82,5.82v236.19c0,41.51-9.31,72.72-27.92,93.66-18.62,20.94-44.8,31.42-78.54,31.42-31.42,0-56.24-9.6-74.46-28.8Z"/>
    <path class="d" d="m54.85,394.08c-18.24-19.2-27.34-46.63-27.34-82.32v-29.67c0-3.87,1.94-5.82,5.82-5.82h29.09c3.87,0,5.82,1.95,5.82,5.82v30.25c0,23.66,5.32,41.99,16,54.98,10.66,13,25.69,19.3,45.09,18.91,14.34,0,26.27-2.71,35.78-8.15,9.5-5.43,16.87-14.63,22.11-27.63,5.24-12.99,7.85-30.54,7.85-52.65V91.86H61.84c-3.88,0-5.82-1.94-5.82-5.82v-24.43c0-3.87,1.93-5.82,5.82-5.82h168.13c3.87,0,5.82,1.94,5.82,5.82v236.19c0,41.51-9.31,72.72-27.92,93.66-18.62,20.94-44.8,31.42-78.54,31.42-31.42,0-56.24-9.6-74.46-28.8Z"/>
    <g>
      <path class="d" d="m541.58,54.88l-360.21.55h-8.97s-112.85.19-112.85.19l.05,30.53c0,3.91,5.4,5.86,16.13,5.84l465.91-.72c10.76-.02,16.12-1.99,16.11-5.89l-.04-24.66c0-3.92-5.37-5.86-16.13-5.85Z"/>
      <path class="d" d="m38.68,91.65h249.67s6.22,0,6.22,0h78.22s0-30.53,0-30.53c0-3.91-3.74-5.87-11.17-5.87H38.68c-7.46,0-11.17,1.96-11.17,5.87v24.66c0,3.92,3.72,5.87,11.17,5.87Z"/>
    </g>
    <g>
      <path class="d" d="m541.51,385.76l-360.21.55h-8.97s-112.85.19-112.85.19l.05,30.53c0,3.91,5.4,5.86,16.13,5.84l465.91-.72c10.76-.02,16.12-1.99,16.11-5.89l-.04-24.66c0-3.92-5.37-5.86-16.13-5.85Z"/>
      <path class="d" d="m38.62,422.53h249.67s6.22,0,6.22,0h78.22s0-30.53,0-30.53c0-3.91-3.74-5.87-11.17-5.87H38.62c-7.46,0-11.17,1.96-11.17,5.87v24.66c0,3.92,3.72,5.87,11.17,5.87Z"/>
    </g>
  </g>
  <g>
    <path class="c" d="m27.41,448.97C9.18,429.77.07,402.33.07,366.65v-29.67c0-3.87,1.94-5.82,5.82-5.82h29.09c3.87,0,5.82,1.95,5.82,5.82v30.25c0,23.66,5.32,41.99,16,54.98,10.66,13,25.69,19.3,45.09,18.91,14.34,0,26.27-2.71,35.78-8.15,9.5-5.43,16.87-14.63,22.11-27.63,5.24-12.99,7.85-30.54,7.85-52.65v-205.94H34.39c-3.88,0-5.82-1.94-5.82-5.82v-24.43c0-3.87,1.93-5.82,5.82-5.82h168.13c3.87,0,5.82,1.94,5.82,5.82v236.19c0,41.51-9.31,72.72-27.92,93.66-18.62,20.94-44.8,31.42-78.54,31.42-31.42,0-56.24-9.6-74.46-28.8Z"/>
    <path class="c" d="m337.61,283.46h12.22V116.49c0-3.87-1.95-5.82-5.82-5.82h-29.09c-3.88,0-5.82,1.94-5.82,5.82v348.47c0,3.88,1.93,5.82,5.82,5.82h29.09c3.87,0,5.82-1.93,5.82-5.82v-124.4l-12.22,15.61v-72.72Z"/>
    <polygon class="c" points="337.61 283.46 337.61 356.18 349.83 340.56 349.83 283.46 337.61 283.46"/>
    <path class="c" d="m484.8,465.55c1.94,3.49,5.04,5.24,9.3,5.24h32c3.88,0,4.85-1.74,2.92-5.24l-117.09-204.33-26.3,33.61,99.17,170.73Z"/>
    <polygon class="c" points="456.9 141.33 352.15 283.46 349.83 283.46 349.83 340.56 385.63 294.82 382.4 289.27 408 254.37 411.93 261.21 505.75 141.33 456.9 141.33"/>
    <polygon class="c" points="382.4 289.27 385.63 294.82 411.93 261.21 408 254.37 382.4 289.27"/>
    <path class="c" d="m27.41,448.97C9.18,429.77.07,402.33.07,366.65v-29.67c0-3.87,1.94-5.82,5.82-5.82h29.09c3.87,0,5.82,1.95,5.82,5.82v30.25c0,23.66,5.32,41.99,16,54.98,10.66,13,25.69,19.3,45.09,18.91,14.34,0,26.27-2.71,35.78-8.15,9.5-5.43,16.87-14.63,22.11-27.63,5.24-12.99,7.85-30.54,7.85-52.65v-205.94H34.39c-3.88,0-5.82-1.94-5.82-5.82v-24.43c0-3.87,1.93-5.82,5.82-5.82h168.13c3.87,0,5.82,1.94,5.82,5.82v236.19c0,41.51-9.31,72.72-27.92,93.66-18.62,20.94-44.8,31.42-78.54,31.42-31.42,0-56.24-9.6-74.46-28.8Z"/>
    <path class="c" d="m27.41,448.97C9.18,429.77.07,402.33.07,366.65v-29.67c0-3.87,1.94-5.82,5.82-5.82h29.09c3.87,0,5.82,1.95,5.82,5.82v30.25c0,23.66,5.32,41.99,16,54.98,10.66,13,25.69,19.3,45.09,18.91,14.34,0,26.27-2.71,35.78-8.15,9.5-5.43,16.87-14.63,22.11-27.63,5.24-12.99,7.85-30.54,7.85-52.65v-205.94H34.39c-3.88,0-5.82-1.94-5.82-5.82v-24.43c0-3.87,1.93-5.82,5.82-5.82h168.13c3.87,0,5.82,1.94,5.82,5.82v236.19c0,41.51-9.31,72.72-27.92,93.66-18.62,20.94-44.8,31.42-78.54,31.42-31.42,0-56.24-9.6-74.46-28.8Z"/>
    <g>
      <path class="c" d="m514.14,109.77l-360.21.55h-8.97s-112.85.19-112.85.19l.05,30.53c0,3.91,5.4,5.86,16.13,5.84l465.91-.72c10.76-.02,16.12-1.99,16.11-5.89l-.04-24.66c0-3.92-5.37-5.86-16.13-5.85Z"/>
      <path class="c" d="m11.24,146.54h249.67s6.22,0,6.22,0h78.22s0-30.53,0-30.53c0-3.91-3.74-5.87-11.17-5.87H11.24c-7.46,0-11.17,1.96-11.17,5.87v24.66c0,3.92,3.72,5.87,11.17,5.87Z"/>
    </g>
    <g>
      <path class="c" d="m514.07,440.65l-360.21.55h-8.97s-112.85.19-112.85.19l.05,30.53c0,3.91,5.4,5.86,16.13,5.84l465.91-.72c10.76-.02,16.12-1.99,16.11-5.89l-.04-24.66c0-3.92-5.37-5.86-16.13-5.85Z"/>
      <path class="c" d="m11.17,477.42h249.67s6.22,0,6.22,0h78.22s0-30.53,0-30.53c0-3.91-3.74-5.87-11.17-5.87H11.17C3.72,441.02,0,442.98,0,446.89v24.66c0,3.92,3.72,5.87,11.17,5.87Z"/>
    </g>
  </g>
</svg>